ISO-10303-21;
HEADER;
FILE_DESCRIPTION (( 'STEP AP214' ),
    '1' );
FILE_NAME ('gazeboBox.STEP',
    '2025-10-26T22:08:29',
    ( '' ),
    ( '' ),
    'SwSTEP 2.0',
    'SolidWorks 2025',
    '' );
FILE_SCHEMA (( 'AUTOMOTIVE_DESIGN' ));
ENDSEC;

DATA;
#1 = EDGE_LOOP ( 'NONE', ( #106, #164 ) ) ;
#2 = LINE ( 'NONE', #132, #160 ) ;
#3 = ORIENTED_EDGE ( 'NONE', *, *, #146, .F. ) ;
#4 = AXIS2_PLACEMENT_3D ( 'NONE', #199, #129, #82 ) ;
#5 = ORIENTED_EDGE ( 'NONE', *, *, #247, .F. ) ;
#6 = DIRECTION ( 'NONE',  ( 0.000000000000000000, 0.000000000000000000, -1.000000000000000000 ) ) ;
#7 = EDGE_CURVE ( 'NONE', #202, #147, #2, .T. ) ;
#8 = CARTESIAN_POINT ( 'NONE',  ( -20.00000000000000711, 29.99999999999999289, 30.00000000000000000 ) ) ;
#9 = AXIS2_PLACEMENT_3D ( 'NONE', #251, #210, #246 ) ;
#10 = DIRECTION ( 'NONE',  ( 0.000000000000000000, 0.000000000000000000, -1.000000000000000000 ) ) ;
#11 = CARTESIAN_POINT ( 'NONE',  ( 19.99999999999999289, -30.00000000000000711, 0.000000000000000000 ) ) ;
#12 = FACE_BOUND ( 'NONE', #110, .T. ) ;
#13 = DIRECTION ( 'NONE',  ( -0.000000000000000000, -0.000000000000000000, -1.000000000000000000 ) ) ;
#14 = LINE ( 'NONE', #233, #140 ) ;
#15 = EDGE_CURVE ( 'NONE', #147, #197, #242, .T. ) ;
#16 = CARTESIAN_POINT ( 'NONE',  ( -20.00000000000000711, -25.00000000000000355, 16.49999999999999289 ) ) ;
#17 = AXIS2_PLACEMENT_3D ( 'NONE', #173, #250, #253 ) ;
#18 = ADVANCED_BREP_SHAPE_REPRESENTATION ( 'gazeboBox', ( #225, #4 ), #258 ) ;
#19 = CARTESIAN_POINT ( 'NONE',  ( 19.99999999999999289, 29.99999999999999289, 30.00000000000000000 ) ) ;
#20 = ORIENTED_EDGE ( 'NONE', *, *, #227, .F. ) ;
#21 = ORIENTED_EDGE ( 'NONE', *, *, #231, .T. ) ;
#22 = AXIS2_PLACEMENT_3D ( 'NONE', #96, #32, #94 ) ;
#23 = ORIENTED_EDGE ( 'NONE', *, *, #146, .T. ) ;
#24 = ORIENTED_EDGE ( 'NONE', *, *, #156, .F. ) ;
#25 = ORIENTED_EDGE ( 'NONE', *, *, #227, .T. ) ;
#26 = MECHANICAL_DESIGN_GEOMETRIC_PRESENTATION_REPRESENTATION (  '', ( #50 ), #56 ) ;
#27 = ORIENTED_EDGE ( 'NONE', *, *, #93, .T. ) ;
#28 = PRODUCT ( 'gazeboBox', 'gazeboBox', '', ( #142 ) ) ;
#29 = CARTESIAN_POINT ( 'NONE',  ( -20.00000000000000711, -25.00000000000000355, 14.99999999999999289 ) ) ;
#30 = CARTESIAN_POINT ( 'NONE',  ( 19.99999999999999289, -25.00000000000000355, 14.99999999999999289 ) ) ;
#31 = PLANE ( 'NONE',  #34 ) ;
#32 = DIRECTION ( 'NONE',  ( 1.000000000000000000, 0.000000000000000000, 0.000000000000000000 ) ) ;
#33 = DIRECTION ( 'NONE',  ( 0.000000000000000000, 0.000000000000000000, -1.000000000000000000 ) ) ;
#34 = AXIS2_PLACEMENT_3D ( 'NONE', #207, #229, #167 ) ;
#35 = FILL_AREA_STYLE_COLOUR ( '', #63 ) ;
#36 = LINE ( 'NONE', #213, #98 ) ;
#37 = EDGE_CURVE ( 'NONE', #223, #40, #64, .T. ) ;
#38 = AXIS2_PLACEMENT_3D ( 'NONE', #29, #48, #185 ) ;
#39 = LINE ( 'NONE', #190, #87 ) ;
#40 = VERTEX_POINT ( 'NONE', #11 ) ;
#41 = ORIENTED_EDGE ( 'NONE', *, *, #255, .F. ) ;
#42 = ADVANCED_FACE ( 'NONE', ( #47 ), #31, .T. ) ;
#43 = DIRECTION ( 'NONE',  ( -0.000000000000000000, -0.000000000000000000, -1.000000000000000000 ) ) ;
#44 = ORIENTED_EDGE ( 'NONE', *, *, #217, .T. ) ;
#45 = VECTOR ( 'NONE', #43, 1000.000000000000000 ) ;
#46 = ORIENTED_EDGE ( 'NONE', *, *, #15, .F. ) ;
#47 = FACE_OUTER_BOUND ( 'NONE', #201, .T. ) ;
#48 = DIRECTION ( 'NONE',  ( 1.000000000000000000, 0.000000000000000000, 0.000000000000000000 ) ) ;
#49 = CARTESIAN_POINT ( 'NONE',  ( -20.00000000000000711, -25.00000000000000355, 16.49999999999999289 ) ) ;
#50 = STYLED_ITEM ( 'NONE', ( #58 ), #225 ) ;
#51 = CARTESIAN_POINT ( 'NONE',  ( -20.00000000000000711, -30.00000000000000711, 0.000000000000000000 ) ) ;
#52 = DIRECTION ( 'NONE',  ( 0.000000000000000000, 1.000000000000000000, 0.000000000000000000 ) ) ;
#53 = ADVANCED_FACE ( 'NONE', ( #12, #152 ), #187, .F. ) ;
#54 = CYLINDRICAL_SURFACE ( 'NONE', #104, 1.500000000000001332 ) ;
#55 = CIRCLE ( 'NONE', #149, 1.500000000000001332 ) ;
#56 =( GEOMETRIC_REPRESENTATION_CONTEXT ( 3 ) GLOBAL_UNCERTAINTY_ASSIGNED_CONTEXT ( ( #109 ) ) GLOBAL_UNIT_ASSIGNED_CONTEXT ( ( #211, #59, #214 ) ) REPRESENTATION_CONTEXT ( 'NONE', 'WORKASPACE' ) );
#57 = CARTESIAN_POINT ( 'NONE',  ( 19.99999999999999289, -25.00000000000000355, 16.49999999999999289 ) ) ;
#58 = PRESENTATION_STYLE_ASSIGNMENT (( #193 ) ) ;
#59 =( NAMED_UNIT ( * ) PLANE_ANGLE_UNIT ( ) SI_UNIT ( $, .RADIAN. ) );
#60 = VERTEX_POINT ( 'NONE', #95 ) ;
#61 = PRODUCT_DEFINITION_SHAPE ( 'NONE', 'NONE',  #127 ) ;
#62 = SURFACE_STYLE_FILL_AREA ( #123 ) ;
#63 = COLOUR_RGB ( '',0.7921568627450980005, 0.8196078431372548767, 0.9333333333333333481 ) ;
#64 = LINE ( 'NONE', #221, #45 ) ;
#65 = EDGE_CURVE ( 'NONE', #245, #86, #80, .T. ) ;
#66 = ORIENTED_EDGE ( 'NONE', *, *, #163, .T. ) ;
#67 = CARTESIAN_POINT ( 'NONE',  ( -20.00000000000000711, 29.99999999999999289, 30.00000000000000000 ) ) ;
#68 = AXIS2_PLACEMENT_3D ( 'NONE', #153, #230, #115 ) ;
#69 = ORIENTED_EDGE ( 'NONE', *, *, #37, .F. ) ;
#70 = ORIENTED_EDGE ( 'NONE', *, *, #113, .T. ) ;
#71 = LINE ( 'NONE', #151, #118 ) ;
#72 = PRODUCT_DEFINITION_FORMATION_WITH_SPECIFIED_SOURCE ( 'ANY', '', #28, .NOT_KNOWN. ) ;
#73 = DIRECTION ( 'NONE',  ( 1.000000000000000000, 0.000000000000000000, 0.000000000000000000 ) ) ;
#74 = ADVANCED_FACE ( 'NONE', ( #172, #168 ), #135, .F. ) ;
#75 = PLANE ( 'NONE',  #252 ) ;
#76 = CYLINDRICAL_SURFACE ( 'NONE', #68, 1.500000000000001332 ) ;
#77 = FACE_OUTER_BOUND ( 'NONE', #126, .T. ) ;
#78 = DIRECTION ( 'NONE',  ( -0.000000000000000000, -0.000000000000000000, -1.000000000000000000 ) ) ;
#79 = CARTESIAN_POINT ( 'NONE',  ( -20.00000000000000711, -25.00000000000000355, 14.99999999999999289 ) ) ;
#80 = CIRCLE ( 'NONE', #22, 1.500000000000001332 ) ;
#81 = CARTESIAN_POINT ( 'NONE',  ( 19.99999999999999289, -25.00000000000000355, 14.99999999999999289 ) ) ;
#82 = DIRECTION ( 'NONE',  ( 1.000000000000000000, 0.000000000000000000, 0.000000000000000000 ) ) ;
#83 = EDGE_LOOP ( 'NONE', ( #5, #165, #21, #203 ) ) ;
#84 = DIRECTION ( 'NONE',  ( -1.000000000000000000, -0.000000000000000000, -0.000000000000000000 ) ) ;
#85 = VECTOR ( 'NONE', #161, 1000.000000000000000 ) ;
#86 = VERTEX_POINT ( 'NONE', #49 ) ;
#87 = VECTOR ( 'NONE', #13, 1000.000000000000000 ) ;
#88 = VERTEX_POINT ( 'NONE', #204 ) ;
#89 = LINE ( 'NONE', #138, #195 ) ;
#90 = FACE_OUTER_BOUND ( 'NONE', #240, .T. ) ;
#91 = CIRCLE ( 'NONE', #38, 1.500000000000001332 ) ;
#92 = VECTOR ( 'NONE', #52, 1000.000000000000000 ) ;
#93 = EDGE_CURVE ( 'NONE', #111, #40, #71, .T. ) ;
#94 = DIRECTION ( 'NONE',  ( 0.000000000000000000, 0.000000000000000000, -1.000000000000000000 ) ) ;
#95 = CARTESIAN_POINT ( 'NONE',  ( -20.00000000000000711, -30.00000000000000711, 30.00000000000000000 ) ) ;
#96 = CARTESIAN_POINT ( 'NONE',  ( -20.00000000000000711, -25.00000000000000355, 14.99999999999999289 ) ) ;
#97 = ADVANCED_FACE ( 'NONE', ( #77 ), #76, .F. ) ;
#98 = VECTOR ( 'NONE', #176, 1000.000000000000000 ) ;
#99 = DIRECTION ( 'NONE',  ( 1.000000000000000000, -0.000000000000000000, -0.000000000000000000 ) ) ;
#100 = DIRECTION ( 'NONE',  ( 1.000000000000000000, -0.000000000000000000, -0.000000000000000000 ) ) ;
#101 = DIRECTION ( 'NONE',  ( 1.000000000000000000, 0.000000000000000000, 0.000000000000000000 ) ) ;
#102 = ADVANCED_FACE ( 'NONE', ( #90 ), #133, .F. ) ;
#103 = DIRECTION ( 'NONE',  ( 0.000000000000000000, 0.000000000000000000, -1.000000000000000000 ) ) ;
#104 = AXIS2_PLACEMENT_3D ( 'NONE', #79, #99, #196 ) ;
#105 = ORIENTED_EDGE ( 'NONE', *, *, #7, .T. ) ;
#106 = ORIENTED_EDGE ( 'NONE', *, *, #65, .T. ) ;
#107 = SHAPE_DEFINITION_REPRESENTATION ( #61, #18 ) ;
#108 = ORIENTED_EDGE ( 'NONE', *, *, #217, .F. ) ;
#109 = UNCERTAINTY_MEASURE_WITH_UNIT (LENGTH_MEASURE( 1.000000000000000082E-05 ), #211, 'distance_accuracy_value', 'NONE');
#110 = EDGE_LOOP ( 'NONE', ( #166, #220 ) ) ;
#111 = VERTEX_POINT ( 'NONE', #51 ) ;
#112 = FACE_OUTER_BOUND ( 'NONE', #178, .T. ) ;
#113 = EDGE_CURVE ( 'NONE', #218, #88, #55, .T. ) ;
#114 = CARTESIAN_POINT ( 'NONE',  ( 0.000000000000000000, 0.000000000000000000, 30.00000000000000000 ) ) ;
#115 = DIRECTION ( 'NONE',  ( 0.000000000000000000, 0.000000000000000000, -1.000000000000000000 ) ) ;
#116 = CARTESIAN_POINT ( 'NONE',  ( -20.00000000000000711, 29.99999999999999289, 0.000000000000000000 ) ) ;
#117 = DIRECTION ( 'NONE',  ( 1.000000000000000000, 0.000000000000000000, 0.000000000000000000 ) ) ;
#118 = VECTOR ( 'NONE', #117, 1000.000000000000000 ) ;
#119 = VECTOR ( 'NONE', #159, 1000.000000000000000 ) ;
#120 = DIRECTION ( 'NONE',  ( -1.000000000000000000, 0.000000000000000000, -0.000000000000000000 ) ) ;
#121 = EDGE_CURVE ( 'NONE', #147, #60, #89, .T. ) ;
#122 = CARTESIAN_POINT ( 'NONE',  ( -20.00000000000000711, -25.00000000000000355, 13.49999999999999112 ) ) ;
#123 = FILL_AREA_STYLE ('',( #35 ) ) ;
#124 = EDGE_LOOP ( 'NONE', ( #66, #105, #162, #44 ) ) ;
#125 = AXIS2_PLACEMENT_3D ( 'NONE', #81, #101, #103 ) ;
#126 = EDGE_LOOP ( 'NONE', ( #24, #198, #70, #241 ) ) ;
#127 = PRODUCT_DEFINITION ( 'UNKNOWN', '', #72, #171 ) ;
#128 = ORIENTED_EDGE ( 'NONE', *, *, #224, .F. ) ;
#129 = DIRECTION ( 'NONE',  ( 0.000000000000000000, 0.000000000000000000, 1.000000000000000000 ) ) ;
#130 = ORIENTED_EDGE ( 'NONE', *, *, #206, .T. ) ;
#131 = UNCERTAINTY_MEASURE_WITH_UNIT (LENGTH_MEASURE( 1.000000000000000082E-05 ), #155, 'distance_accuracy_value', 'NONE');
#132 = CARTESIAN_POINT ( 'NONE',  ( -20.00000000000000711, 29.99999999999999289, 30.00000000000000000 ) ) ;
#133 = PLANE ( 'NONE',  #17 ) ;
#134 = CARTESIAN_POINT ( 'NONE',  ( 19.99999999999999289, 29.99999999999999289, 0.000000000000000000 ) ) ;
#135 = PLANE ( 'NONE',  #257 ) ;
#136 = VECTOR ( 'NONE', #78, 1000.000000000000000 ) ;
#137 = DIRECTION ( 'NONE',  ( -0.000000000000000000, -1.000000000000000000, -0.000000000000000000 ) ) ;
#138 = CARTESIAN_POINT ( 'NONE',  ( -20.00000000000000711, -30.00000000000000711, 30.00000000000000000 ) ) ;
#139 = DIRECTION ( 'NONE',  ( -0.000000000000000000, -1.000000000000000000, -0.000000000000000000 ) ) ;
#140 = VECTOR ( 'NONE', #139, 1000.000000000000000 ) ;
#141 = ORIENTED_EDGE ( 'NONE', *, *, #37, .T. ) ;
#142 = PRODUCT_CONTEXT ( 'NONE', #188, 'mechanical' ) ;
#143 = ORIENTED_EDGE ( 'NONE', *, *, #163, .F. ) ;
#144 = EDGE_LOOP ( 'NONE', ( #130, #20, #182, #244 ) ) ;
#145 = ORIENTED_EDGE ( 'NONE', *, *, #224, .T. ) ;
#146 = EDGE_CURVE ( 'NONE', #179, #197, #208, .T. ) ;
#147 = VERTEX_POINT ( 'NONE', #189 ) ;
#148 = ORIENTED_EDGE ( 'NONE', *, *, #7, .F. ) ;
#149 = AXIS2_PLACEMENT_3D ( 'NONE', #30, #150, #33 ) ;
#150 = DIRECTION ( 'NONE',  ( 1.000000000000000000, 0.000000000000000000, 0.000000000000000000 ) ) ;
#151 = CARTESIAN_POINT ( 'NONE',  ( -20.00000000000000711, -30.00000000000000711, 0.000000000000000000 ) ) ;
#152 = FACE_OUTER_BOUND ( 'NONE', #222, .T. ) ;
#153 = CARTESIAN_POINT ( 'NONE',  ( -20.00000000000000711, -25.00000000000000355, 14.99999999999999289 ) ) ;
#154 = LINE ( 'NONE', #232, #92 ) ;
#155 =( LENGTH_UNIT ( ) NAMED_UNIT ( * ) SI_UNIT ( .MILLI., .METRE. ) );
#156 = EDGE_CURVE ( 'NONE', #86, #245, #91, .T. ) ;
#157 = DIRECTION ( 'NONE',  ( 0.000000000000000000, 1.000000000000000000, 0.000000000000000000 ) ) ;
#158 = CLOSED_SHELL ( 'NONE', ( #97, #53, #175, #74, #102, #186, #42, #237 ) ) ;
#159 = DIRECTION ( 'NONE',  ( 1.000000000000000000, 0.000000000000000000, 0.000000000000000000 ) ) ;
#160 = VECTOR ( 'NONE', #84, 1000.000000000000000 ) ;
#161 = DIRECTION ( 'NONE',  ( -0.000000000000000000, -0.000000000000000000, -1.000000000000000000 ) ) ;
#162 = ORIENTED_EDGE ( 'NONE', *, *, #121, .T. ) ;
#163 = EDGE_CURVE ( 'NONE', #223, #202, #154, .T. ) ;
#164 = ORIENTED_EDGE ( 'NONE', *, *, #156, .T. ) ;
#165 = ORIENTED_EDGE ( 'NONE', *, *, #65, .F. ) ;
#166 = ORIENTED_EDGE ( 'NONE', *, *, #261, .F. ) ;
#167 = DIRECTION ( 'NONE',  ( -1.000000000000000000, 0.000000000000000000, -0.000000000000000000 ) ) ;
#168 = FACE_OUTER_BOUND ( 'NONE', #144, .T. ) ;
#169 = PRESENTATION_LAYER_ASSIGNMENT (  '', '', ( #50 ) ) ;
#170 = CARTESIAN_POINT ( 'NONE',  ( -20.00000000000000711, -30.00000000000000711, 30.00000000000000000 ) ) ;
#171 = PRODUCT_DEFINITION_CONTEXT ( 'detailed design', #191, 'design' ) ;
#172 = FACE_BOUND ( 'NONE', #1, .T. ) ;
#173 = CARTESIAN_POINT ( 'NONE',  ( -20.00000000000000711, -30.00000000000000711, 30.00000000000000000 ) ) ;
#174 = CARTESIAN_POINT ( 'NONE',  ( 19.99999999999999289, -30.00000000000000711, 0.000000000000000000 ) ) ;
#175 = ADVANCED_FACE ( 'NONE', ( #112 ), #184, .F. ) ;
#176 = DIRECTION ( 'NONE',  ( 1.000000000000000000, -0.000000000000000000, -0.000000000000000000 ) ) ;
#177 =( NAMED_UNIT ( * ) PLANE_ANGLE_UNIT ( ) SI_UNIT ( $, .RADIAN. ) );
#178 = EDGE_LOOP ( 'NONE', ( #23, #46, #148, #145 ) ) ;
#179 = VERTEX_POINT ( 'NONE', #134 ) ;
#180 = ORIENTED_EDGE ( 'NONE', *, *, #255, .T. ) ;
#181 = AXIS2_PLACEMENT_3D ( 'NONE', #8, #249, #228 ) ;
#182 = ORIENTED_EDGE ( 'NONE', *, *, #121, .F. ) ;
#183 = ORIENTED_EDGE ( 'NONE', *, *, #93, .F. ) ;
#184 = PLANE ( 'NONE',  #181 ) ;
#185 = DIRECTION ( 'NONE',  ( 0.000000000000000000, 0.000000000000000000, -1.000000000000000000 ) ) ;
#186 = ADVANCED_FACE ( 'NONE', ( #205 ), #75, .F. ) ;
#187 = PLANE ( 'NONE',  #9 ) ;
#188 = APPLICATION_CONTEXT ( 'automotive_design' ) ;
#189 = CARTESIAN_POINT ( 'NONE',  ( -20.00000000000000711, 29.99999999999999289, 30.00000000000000000 ) ) ;
#190 = CARTESIAN_POINT ( 'NONE',  ( -20.00000000000000711, -30.00000000000000711, 30.00000000000000000 ) ) ;
#191 = APPLICATION_CONTEXT ( 'automotive_design' ) ;
#192 = CARTESIAN_POINT ( 'NONE',  ( 19.99999999999999289, 29.99999999999999289, 30.00000000000000000 ) ) ;
#193 = SURFACE_STYLE_USAGE ( .BOTH. , #254 ) ;
#194 = LINE ( 'NONE', #174, #248 ) ;
#195 = VECTOR ( 'NONE', #137, 1000.000000000000000 ) ;
#196 = DIRECTION ( 'NONE',  ( 0.000000000000000000, 0.000000000000000000, -1.000000000000000000 ) ) ;
#197 = VERTEX_POINT ( 'NONE', #239 ) ;
#198 = ORIENTED_EDGE ( 'NONE', *, *, #247, .T. ) ;
#199 = CARTESIAN_POINT ( 'NONE',  ( 0.000000000000000000, 0.000000000000000000, 0.000000000000000000 ) ) ;
#200 = ORIENTED_EDGE ( 'NONE', *, *, #206, .F. ) ;
#201 = EDGE_LOOP ( 'NONE', ( #41, #183, #200, #3 ) ) ;
#202 = VERTEX_POINT ( 'NONE', #192 ) ;
#203 = ORIENTED_EDGE ( 'NONE', *, *, #261, .T. ) ;
#204 = CARTESIAN_POINT ( 'NONE',  ( 19.99999999999999289, -25.00000000000000355, 13.49999999999999112 ) ) ;
#205 = FACE_OUTER_BOUND ( 'NONE', #124, .T. ) ;
#206 = EDGE_CURVE ( 'NONE', #197, #111, #14, .T. ) ;
#207 = CARTESIAN_POINT ( 'NONE',  ( 0.000000000000000000, 0.000000000000000000, 0.000000000000000000 ) ) ;
#208 = LINE ( 'NONE', #116, #234 ) ;
#209 = PRODUCT_RELATED_PRODUCT_CATEGORY ( 'part', '', ( #28 ) ) ;
#210 = DIRECTION ( 'NONE',  ( -1.000000000000000000, 0.000000000000000000, 0.000000000000000000 ) ) ;
#211 =( LENGTH_UNIT ( ) NAMED_UNIT ( * ) SI_UNIT ( .MILLI., .METRE. ) );
#212 = VECTOR ( 'NONE', #100, 1000.000000000000000 ) ;
#213 = CARTESIAN_POINT ( 'NONE',  ( -20.00000000000000711, -25.00000000000000355, 13.49999999999999112 ) ) ;
#214 =( NAMED_UNIT ( * ) SI_UNIT ( $, .STERADIAN. ) SOLID_ANGLE_UNIT ( ) );
#215 = FACE_OUTER_BOUND ( 'NONE', #83, .T. ) ;
#216 = LINE ( 'NONE', #236, #119 ) ;
#217 = EDGE_CURVE ( 'NONE', #60, #223, #216, .T. ) ;
#218 = VERTEX_POINT ( 'NONE', #57 ) ;
#219 = APPLICATION_PROTOCOL_DEFINITION ( 'draft international standard', 'automotive_design', 1998, #188 ) ;
#220 = ORIENTED_EDGE ( 'NONE', *, *, #113, .F. ) ;
#221 = CARTESIAN_POINT ( 'NONE',  ( 19.99999999999999289, -30.00000000000000711, 30.00000000000000000 ) ) ;
#222 = EDGE_LOOP ( 'NONE', ( #180, #128, #143, #141 ) ) ;
#223 = VERTEX_POINT ( 'NONE', #238 ) ;
#224 = EDGE_CURVE ( 'NONE', #202, #179, #256, .T. ) ;
#225 = MANIFOLD_SOLID_BREP ( 'Cut-Extrude1', #158 ) ;
#226 = DIRECTION ( 'NONE',  ( -1.000000000000000000, -0.000000000000000000, -0.000000000000000000 ) ) ;
#227 = EDGE_CURVE ( 'NONE', #60, #111, #39, .T. ) ;
#228 = DIRECTION ( 'NONE',  ( 0.000000000000000000, -0.000000000000000000, -1.000000000000000000 ) ) ;
#229 = DIRECTION ( 'NONE',  ( 0.000000000000000000, 0.000000000000000000, -1.000000000000000000 ) ) ;
#230 = DIRECTION ( 'NONE',  ( 1.000000000000000000, -0.000000000000000000, -0.000000000000000000 ) ) ;
#231 = EDGE_CURVE ( 'NONE', #245, #88, #36, .T. ) ;
#232 = CARTESIAN_POINT ( 'NONE',  ( 19.99999999999999289, -30.00000000000000711, 30.00000000000000000 ) ) ;
#233 = CARTESIAN_POINT ( 'NONE',  ( -20.00000000000000711, -30.00000000000000711, 0.000000000000000000 ) ) ;
#234 = VECTOR ( 'NONE', #226, 1000.000000000000000 ) ;
#235 = CIRCLE ( 'NONE', #125, 1.500000000000001332 ) ;
#236 = CARTESIAN_POINT ( 'NONE',  ( -20.00000000000000711, -30.00000000000000711, 30.00000000000000000 ) ) ;
#237 = ADVANCED_FACE ( 'NONE', ( #215 ), #54, .F. ) ;
#238 = CARTESIAN_POINT ( 'NONE',  ( 19.99999999999999289, -30.00000000000000711, 30.00000000000000000 ) ) ;
#239 = CARTESIAN_POINT ( 'NONE',  ( -20.00000000000000711, 29.99999999999999289, 0.000000000000000000 ) ) ;
#240 = EDGE_LOOP ( 'NONE', ( #27, #69, #108, #25 ) ) ;
#241 = ORIENTED_EDGE ( 'NONE', *, *, #231, .F. ) ;
#242 = LINE ( 'NONE', #67, #85 ) ;
#243 = APPLICATION_PROTOCOL_DEFINITION ( 'draft international standard', 'automotive_design', 1998, #191 ) ;
#244 = ORIENTED_EDGE ( 'NONE', *, *, #15, .T. ) ;
#245 = VERTEX_POINT ( 'NONE', #122 ) ;
#246 = DIRECTION ( 'NONE',  ( 0.000000000000000000, 0.000000000000000000, 1.000000000000000000 ) ) ;
#247 = EDGE_CURVE ( 'NONE', #86, #218, #259, .T. ) ;
#248 = VECTOR ( 'NONE', #157, 1000.000000000000000 ) ;
#249 = DIRECTION ( 'NONE',  ( 0.000000000000000000, -1.000000000000000000, 0.000000000000000000 ) ) ;
#250 = DIRECTION ( 'NONE',  ( 0.000000000000000000, 1.000000000000000000, 0.000000000000000000 ) ) ;
#251 = CARTESIAN_POINT ( 'NONE',  ( 19.99999999999999289, -30.00000000000000711, 30.00000000000000000 ) ) ;
#252 = AXIS2_PLACEMENT_3D ( 'NONE', #114, #10, #120 ) ;
#253 = DIRECTION ( 'NONE',  ( 0.000000000000000000, -0.000000000000000000, 1.000000000000000000 ) ) ;
#254 = SURFACE_SIDE_STYLE ('',( #62 ) ) ;
#255 = EDGE_CURVE ( 'NONE', #40, #179, #194, .T. ) ;
#256 = LINE ( 'NONE', #19, #136 ) ;
#257 = AXIS2_PLACEMENT_3D ( 'NONE', #170, #73, #6 ) ;
#258 =( GEOMETRIC_REPRESENTATION_CONTEXT ( 3 ) GLOBAL_UNCERTAINTY_ASSIGNED_CONTEXT ( ( #131 ) ) GLOBAL_UNIT_ASSIGNED_CONTEXT ( ( #155, #177, #260 ) ) REPRESENTATION_CONTEXT ( 'NONE', 'WORKASPACE' ) );
#259 = LINE ( 'NONE', #16, #212 ) ;
#260 =( NAMED_UNIT ( * ) SI_UNIT ( $, .STERADIAN. ) SOLID_ANGLE_UNIT ( ) );
#261 = EDGE_CURVE ( 'NONE', #88, #218, #235, .T. ) ;
ENDSEC;
END-ISO-10303-21;
